<svg width="750" height="500" viewBox="0 0 750 500" fill="none" xmlns="http://www.w3.org/2000/svg">
<path d="M291.698 185.636C287.244 192.418 284.248 199.869 282.653 207.554L270.414 208.707L270.413 232.41L282.654 233.563C284.248 241.246 287.245 248.697 291.699 255.481L283.881 264.923L300.642 281.684L310.084 273.867C316.868 278.321 324.318 281.317 332.001 282.911L333.153 295.152L356.856 295.151L358.009 282.913C365.693 281.317 373.144 278.321 379.928 273.868L389.37 281.685L406.131 264.924L398.314 255.481C402.767 248.697 405.763 241.247 407.358 233.564L419.596 232.411L419.598 208.708L407.359 207.554C405.763 199.871 402.767 192.421 398.313 185.638L406.13 176.195L389.369 159.435L379.927 167.252C373.142 162.798 365.692 159.801 358.01 158.206L356.857 145.966L333.154 145.967L332.002 158.206C324.318 159.802 316.868 162.796 310.085 167.251L300.642 159.433L283.881 176.194L291.698 185.636ZM367.695 197.868C380.224 210.399 380.225 230.716 367.695 243.247C355.163 255.779 334.845 255.778 322.315 243.248C309.784 230.717 309.785 210.4 322.316 197.868C334.847 185.339 355.164 185.338 367.695 197.868Z" fill="#E0E0E0"/>
<path d="M183.555 144.195C181.048 148.012 179.362 152.205 178.464 156.53L171.576 157.179L171.575 170.519L178.464 171.168C179.361 175.492 181.048 179.685 183.555 183.504L179.155 188.818L188.588 198.251L193.902 193.852C197.72 196.359 201.913 198.045 206.237 198.942L206.885 205.831L220.225 205.83L220.874 198.942C225.199 198.044 229.392 196.358 233.21 193.851L238.524 198.25L247.957 188.817L243.558 183.503C246.064 179.685 247.75 175.492 248.648 171.168L255.536 170.519L255.537 157.179L248.649 156.53C247.751 152.206 246.064 148.013 243.558 144.196L247.957 138.882L238.524 129.449L233.21 133.848C229.392 131.341 225.199 129.654 220.875 128.757L220.226 121.868L206.886 121.869L206.238 128.758C201.914 129.656 197.721 131.341 193.903 133.848L188.588 129.448L179.155 138.881L183.555 144.195ZM226.327 151.079C233.379 158.131 233.379 169.566 226.327 176.619C219.274 183.672 207.839 183.671 200.787 176.619C193.734 169.566 193.735 158.132 200.787 151.079C207.84 144.028 219.274 144.027 226.327 151.079Z" fill="#E0E0E0"/>
<path d="M219.544 86.221C218.291 88.129 217.449 90.225 217 92.386L213.557 92.71V99.377L217 99.701C217.449 101.862 218.291 103.958 219.544 105.866L217.345 108.522L222.06 113.236L224.716 111.037C226.624 112.29 228.72 113.133 230.881 113.581L231.205 117.024H237.872L238.196 113.582C240.357 113.133 242.453 112.29 244.361 111.038L247.017 113.237L251.732 108.523L249.533 105.867C250.786 103.959 251.628 101.863 252.077 99.702L255.519 99.378L255.52 92.711L252.077 92.386C251.628 90.225 250.785 88.129 249.533 86.221L251.732 83.565L247.018 78.851L244.362 81.05C242.454 79.797 240.358 78.954 238.197 78.505L237.873 75.062H231.206L230.882 78.505C228.721 78.954 226.625 79.796 224.717 81.049L222.061 78.85L217.346 83.565L219.544 86.221ZM240.921 89.662C244.445 93.187 244.446 98.902 240.921 102.426C237.396 105.951 231.681 105.951 228.157 102.426C224.632 98.901 224.632 93.187 228.157 89.662C231.681 86.137 237.395 86.137 240.921 89.662Z" fill="#E0E0E0"/>
<path d="M165.565 282.327L122.54 290.792C120.637 291.166 118.791 289.927 118.416 288.024L107.154 230.784C106.78 228.881 108.019 227.035 109.922 226.661L152.947 218.196C154.85 217.822 156.696 219.061 157.071 220.964L168.333 278.204C168.707 280.106 167.468 281.952 165.565 282.327Z" fill="#E6E6E6"/>
<path d="M149.002 237.904L121.04 243.405C120.078 243.594 119.145 242.968 118.956 242.006L118.803 241.23C118.614 240.268 119.24 239.335 120.202 239.146L148.164 233.645C149.126 233.456 150.059 234.082 150.248 235.043L150.401 235.82C150.589 236.782 149.963 237.715 149.002 237.904Z" fill="#F0F0F0"/>
<path d="M151.145 248.799L123.183 254.301C122.221 254.49 121.289 253.864 121.099 252.902L120.946 252.125C120.757 251.163 121.383 250.231 122.345 250.041L150.307 244.539C151.269 244.35 152.202 244.976 152.391 245.938L152.544 246.715C152.733 247.677 152.107 248.61 151.145 248.799Z" fill="#F0F0F0"/>
<path d="M153.289 259.694L125.327 265.196C124.365 265.385 123.432 264.759 123.243 263.797L123.09 263.02C122.901 262.058 123.527 261.125 124.489 260.936L152.451 255.434C153.413 255.245 154.346 255.871 154.535 256.833L154.688 257.609C154.877 258.572 154.251 259.505 153.289 259.694Z" fill="#F0F0F0"/>
<path d="M140.558 273.516L127.471 276.091C126.509 276.28 125.577 275.654 125.387 274.693L125.234 273.916C125.045 272.954 125.671 272.021 126.633 271.832L139.72 269.257C140.682 269.068 141.615 269.694 141.804 270.656L141.957 271.433C142.145 272.394 141.519 273.327 140.558 273.516Z" fill="#F0F0F0"/>
<path d="M207.447 339.934L180.217 336.683C178.291 336.453 176.916 334.706 177.146 332.78L181.56 295.809C181.79 293.883 183.537 292.509 185.463 292.738L212.693 295.989C214.619 296.219 215.994 297.966 215.764 299.892L211.35 336.863C211.12 338.789 209.373 340.164 207.447 339.934Z" fill="#E6E6E6"/>
<path d="M206.902 307.966L188.274 305.742C187.468 305.646 186.893 304.915 186.989 304.109C187.085 303.303 187.816 302.728 188.622 302.824L207.25 305.048C208.056 305.144 208.631 305.875 208.535 306.681C208.439 307.487 207.707 308.062 206.902 307.966Z" fill="#F0F0F0"/>
<path d="M206.01 315.431L187.382 313.207C186.576 313.111 186.001 312.379 186.097 311.574C186.193 310.768 186.924 310.193 187.73 310.289L206.358 312.513C207.164 312.609 207.739 313.34 207.643 314.146C207.547 314.952 206.816 315.528 206.01 315.431Z" fill="#F0F0F0"/>
<path d="M205.119 322.897L186.491 320.673C185.685 320.577 185.11 319.846 185.206 319.04C185.302 318.234 186.033 317.659 186.839 317.755L205.467 319.979C206.273 320.075 206.848 320.806 206.752 321.612C206.656 322.418 205.925 322.993 205.119 322.897Z" fill="#F0F0F0"/>
<path d="M194.035 329.146L185.599 328.139C184.793 328.043 184.218 327.312 184.314 326.506C184.41 325.7 185.141 325.125 185.947 325.221L194.383 326.228C195.189 326.324 195.764 327.056 195.668 327.861C195.572 328.667 194.841 329.242 194.035 329.146Z" fill="#F0F0F0"/>
<path d="M658.121 225.114L625.926 212.9C624.113 212.212 623.2 210.184 623.888 208.371L640.291 165.136C640.979 163.323 643.007 162.411 644.82 163.098L677.016 175.313C678.829 176.001 679.742 178.029 679.054 179.842L662.651 223.077C661.963 224.89 659.935 225.802 658.121 225.114Z" fill="#E6E6E6"/>
<path d="M666.383 187.47L644.713 179.248C643.954 178.96 643.572 178.112 643.86 177.353L644.072 176.794C644.36 176.035 645.208 175.653 645.967 175.941L667.637 184.163C668.396 184.451 668.778 185.299 668.49 186.058L668.278 186.617C667.99 187.376 667.142 187.758 666.383 187.47Z" fill="#F0F0F0"/>
<path d="M663.173 195.931L641.503 187.71C640.744 187.422 640.362 186.574 640.65 185.815L640.862 185.256C641.15 184.497 641.998 184.115 642.757 184.403L664.427 192.624C665.186 192.912 665.568 193.76 665.28 194.519L665.068 195.078C664.78 195.837 663.932 196.219 663.173 195.931Z" fill="#F0F0F0"/>
<path d="M659.963 204.392L638.293 196.171C637.534 195.883 637.152 195.035 637.44 194.276L637.652 193.717C637.94 192.958 638.788 192.576 639.547 192.864L661.217 201.085C661.976 201.373 662.358 202.221 662.07 202.98L661.858 203.539C661.571 204.298 660.722 204.68 659.963 204.392Z" fill="#F0F0F0"/>
<path d="M645.202 208.47L635.083 204.631C634.324 204.343 633.942 203.495 634.23 202.736L634.442 202.177C634.73 201.418 635.578 201.036 636.337 201.324L646.456 205.163C647.215 205.451 647.597 206.299 647.309 207.058L647.097 207.617C646.81 208.376 645.961 208.758 645.202 208.47Z" fill="#F0F0F0"/>
<path d="M397.751 83.073H387.606C386.738 83.073 386.035 82.369 386.035 81.502V68.92C386.035 68.052 386.738 67.349 387.606 67.349H397.751C398.619 67.349 399.322 68.052 399.322 68.92V81.501C399.322 82.369 398.618 83.073 397.751 83.073Z" fill="#E0E0E0"/>
<path d="M417.735 83.073H407.59C406.722 83.073 406.019 82.369 406.019 81.502V56.692C406.019 55.824 406.723 55.121 407.59 55.121H417.735C418.603 55.121 419.306 55.825 419.306 56.692V81.502C419.306 82.369 418.603 83.073 417.735 83.073Z" fill="#E0E0E0"/>
<path d="M439.249 83.423H429.104C428.236 83.423 427.533 82.72 427.533 81.852V44.615C427.533 43.747 428.236 43.044 429.104 43.044H439.249C440.117 43.044 440.82 43.747 440.82 44.615V81.852C440.82 82.719 440.117 83.423 439.249 83.423Z" fill="#E0E0E0"/>
<path d="M476.598 274.398C474.186 278.071 472.564 282.106 471.7 286.268L465.072 286.892L465.071 299.728L471.7 300.352C472.563 304.513 474.186 308.547 476.598 312.222L472.364 317.335L481.441 326.412L486.554 322.179C490.228 324.591 494.262 326.213 498.423 327.077L499.047 333.706L511.883 333.705L512.507 327.078C516.668 326.213 520.703 324.591 524.377 322.18L529.49 326.413L538.567 317.336L534.334 312.222C536.745 308.548 538.368 304.514 539.232 300.353L545.86 299.729L545.861 286.893L539.233 286.268C538.369 282.107 536.746 278.073 534.334 274.4L538.567 269.286L529.49 260.21L524.377 264.443C520.703 262.031 516.668 260.408 512.508 259.544L511.884 252.916L499.048 252.917L498.424 259.545C494.263 260.409 490.229 262.031 486.555 264.443L481.441 260.209L472.364 269.286L476.598 274.398ZM517.754 281.023C524.539 287.809 524.54 298.812 517.754 305.598C510.967 312.384 499.964 312.384 493.179 305.598C486.393 298.812 486.393 287.81 493.179 281.023C499.965 274.237 510.968 274.237 517.754 281.023Z" fill="#E0E0E0"/>
<path d="M556.069 304.777C554.931 306.51 554.165 308.414 553.758 310.378L550.63 310.672V316.729L553.758 317.024C554.165 318.987 554.931 320.891 556.069 322.625L554.071 325.038L558.354 329.321L560.767 327.324C562.501 328.462 564.404 329.228 566.367 329.635L566.662 332.763H572.719L573.014 329.636C574.978 329.228 576.881 328.463 578.615 327.325L581.028 329.322L585.311 325.039L583.314 322.626C584.452 320.893 585.217 318.989 585.625 317.025L588.752 316.73V310.673L585.624 310.378C585.216 308.415 584.45 306.511 583.312 304.778L585.309 302.365L581.026 298.082L578.613 300.079C576.879 298.941 574.976 298.175 573.012 297.767L572.717 294.639H566.66L566.365 297.767C564.402 298.175 562.498 298.94 560.765 300.078L558.352 298.08L554.069 302.363L556.069 304.777ZM575.489 307.903C578.691 311.105 578.691 316.297 575.489 319.499C572.287 322.701 567.095 322.701 563.893 319.499C560.691 316.297 560.691 311.106 563.893 307.903C567.095 304.702 572.287 304.701 575.489 307.903Z" fill="#E0E0E0"/>
<path d="M502.209 212.604C501.071 214.337 500.305 216.241 499.898 218.205L496.77 218.499V224.556L499.898 224.851C500.305 226.814 501.071 228.718 502.209 230.452L500.211 232.865L504.494 237.148L506.907 235.151C508.64 236.289 510.544 237.055 512.508 237.462L512.802 240.59H518.859L519.154 237.463C521.118 237.055 523.021 236.29 524.755 235.152L527.168 237.149L531.451 232.866L529.454 230.453C530.592 228.719 531.358 226.816 531.765 224.852L534.892 224.557V218.5L531.764 218.205C531.356 216.242 530.59 214.338 529.452 212.605L531.449 210.192L527.166 205.909L524.753 207.906C523.019 206.768 521.116 206.002 519.152 205.594L518.857 202.466H512.8L512.506 205.594C510.543 206.002 508.639 206.767 506.906 207.905L504.493 205.907L500.21 210.19L502.209 212.604ZM521.629 215.73C524.831 218.932 524.831 224.124 521.629 227.326C518.427 230.528 513.235 230.528 510.033 227.326C506.831 224.124 506.831 218.932 510.033 215.73C513.235 212.528 518.426 212.528 521.629 215.73Z" fill="#F5F5F5"/>
<path d="M551.597 234.841C549.46 238.095 548.023 241.669 547.257 245.356L541.385 245.909V257.281L547.258 257.834C548.023 261.52 549.46 265.094 551.597 268.349L547.846 272.879L555.887 280.92L560.417 277.17C563.672 279.307 567.246 280.744 570.932 281.509L571.485 287.382L582.857 287.381L583.41 281.51C587.097 280.744 590.671 279.307 593.926 277.17L598.456 280.92L606.497 272.879L602.747 268.349C604.883 265.094 606.321 261.52 607.086 257.834L612.957 257.281L612.958 245.909L607.086 245.356C606.32 241.67 604.883 238.096 602.746 234.842L606.496 230.312L598.455 222.271L593.925 226.021C590.67 223.884 587.096 222.446 583.41 221.681L582.857 215.809L571.485 215.81L570.932 221.682C567.246 222.448 563.672 223.884 560.417 226.021L555.887 222.27L547.846 230.311L551.597 234.841ZM588.057 240.71C594.068 246.722 594.068 256.469 588.057 262.481C582.045 268.493 572.297 268.493 566.286 262.481C560.274 256.469 560.275 246.722 566.286 240.71C572.298 234.699 582.045 234.698 588.057 240.71Z" fill="#F5F5F5"/>
<path d="M146.271 76.236C144.404 79.078 143.149 82.201 142.48 85.422L137.35 85.905L137.349 95.839L142.479 96.322C143.147 99.542 144.403 102.665 146.27 105.508L142.993 109.465L150.018 116.49L153.975 113.214C156.818 115.081 159.94 116.336 163.161 117.004L163.644 122.134L173.578 122.133L174.061 117.004C177.282 116.335 180.404 115.08 183.247 113.213L187.204 116.489L194.229 109.464L190.953 105.507C192.819 102.664 194.075 99.542 194.743 96.321L199.872 95.838L199.873 85.904L194.743 85.42C194.074 82.2 192.818 79.078 190.952 76.235L194.228 72.277L187.203 65.253L183.246 68.529C180.402 66.662 177.28 65.406 174.06 64.738L173.577 59.608H163.643L163.16 64.738C159.94 65.407 156.817 66.662 153.975 68.529L150.017 65.253L142.992 72.278L146.271 76.236ZM178.122 81.363C183.373 86.615 183.373 95.13 178.122 100.382C172.87 105.634 164.354 105.634 159.103 100.382C153.851 95.13 153.851 86.615 159.103 81.363C164.355 76.112 172.87 76.111 178.122 81.363Z" fill="#F5F5F5"/>
<path d="M673.734 317.179H492.988C489.756 317.179 487.126 314.549 487.126 311.317V48.043C487.126 44.811 489.756 42.181 492.988 42.181H673.734C676.966 42.181 679.596 44.81 679.596 48.043V311.316C679.596 314.549 676.966 317.179 673.734 317.179ZM492.988 42.432C489.893 42.432 487.376 44.949 487.376 48.044V311.317C487.376 314.412 489.894 316.929 492.988 316.929H673.734C676.829 316.929 679.346 314.411 679.346 311.317V48.043C679.346 44.949 676.828 42.431 673.734 42.431L492.988 42.432Z" fill="#E0E0E0"/>
<path d="M465.306 317.179H284.56C281.328 317.179 278.698 314.549 278.698 311.317V48.043C278.698 44.811 281.327 42.181 284.56 42.181H465.307C468.539 42.181 471.169 44.81 471.169 48.043V311.316C471.168 314.549 468.538 317.179 465.306 317.179ZM284.56 42.432C281.466 42.432 278.948 44.949 278.948 48.044V311.317C278.948 314.412 281.466 316.929 284.56 316.929H465.307C468.402 316.929 470.919 314.411 470.919 311.317V48.043C470.919 44.949 468.401 42.431 465.307 42.431L284.56 42.432Z" fill="#E0E0E0"/>
<path d="M257.012 317.179H76.266C73.034 317.179 70.404 314.549 70.404 311.317V48.043C70.404 44.811 73.033 42.181 76.266 42.181H257.012C260.244 42.181 262.874 44.81 262.874 48.043V311.316C262.875 314.549 260.245 317.179 257.012 317.179ZM76.266 42.432C73.172 42.432 70.654 44.949 70.654 48.044V311.317C70.654 314.412 73.172 316.929 76.266 316.929H257.012C260.107 316.929 262.624 314.411 262.624 311.317V48.043C262.624 44.949 260.106 42.431 257.012 42.431L76.266 42.432Z" fill="#E0E0E0"/>
<path d="M750 378.249H0V378.369H750V378.249Z" fill="#E0E0E0"/>
<path d="M709.355 407.625H653.626V408.046H709.355V407.625Z" fill="#EBEBEB"/>
<path d="M509.671 412.19H495.044V412.611H509.671V412.19Z" fill="#EBEBEB"/>
<path d="M113.319 394.827H40.645V395.248H113.319V394.827Z" fill="#EBEBEB"/>
<path d="M138.955 394.827H128.299V395.248H138.955V394.827Z" fill="#EBEBEB"/>
<path d="M331.199 401.931H173.586V402.352H331.199V401.931Z" fill="#EBEBEB"/>
<path d="M629.379 460.639C629.379 464.026 515.49 466.771 375 466.771C234.51 466.771 120.621 464.025 120.621 460.639C120.621 457.252 234.51 454.507 375 454.507C515.49 454.507 629.379 457.252 629.379 460.639Z" fill="#F5F5F5"/>
<path d="M180.542 194.194H75.363C73.101 194.194 71.268 192.361 71.268 190.099V131.006C71.268 128.745 73.101 126.911 75.363 126.911H180.542C182.803 126.911 184.637 128.744 184.637 131.006V190.099C184.637 192.361 182.804 194.194 180.542 194.194Z" fill="#407BFF"/>
<path opacity="0.8" d="M180.542 194.194H75.363C73.101 194.194 71.268 192.361 71.268 190.099V131.006C71.268 128.745 73.101 126.911 75.363 126.911H180.542C182.803 126.911 184.637 128.744 184.637 131.006V190.099C184.637 192.361 182.804 194.194 180.542 194.194Z" fill="white"/>
<path d="M88.313 164.284C88.805 163.841 102.074 150.74 102.074 150.74L115.161 157.181L127.953 142.13L141.04 160.988L153.804 152.659" stroke="#263238" stroke-width="0.5" stroke-miterlimit="10"/>
<path d="M92.412 170.182H86.277V183.777H92.412V170.182Z" fill="#407BFF"/>
<path d="M105.044 161.198H98.909V183.776H105.044V161.198Z" fill="#407BFF"/>
<path d="M117.918 163.469H111.782V183.777H117.918V163.469Z" fill="#407BFF"/>
<path d="M131.021 150.739H124.885V183.776H131.021V150.739Z" fill="#407BFF"/>
<path d="M144.264 168.257H138.128V183.776H144.264V168.257Z" fill="#407BFF"/>
<path d="M92.641 162.744C92.641 164.565 91.165 166.04 89.345 166.04C87.524 166.04 86.049 164.564 86.049 162.744C86.049 160.923 87.525 159.448 89.345 159.448C91.165 159.447 92.641 160.923 92.641 162.744Z" fill="#407BFF"/>
<path d="M105.273 150.739C105.273 152.559 103.797 154.035 101.977 154.035C100.157 154.035 98.681 152.559 98.681 150.739C98.681 148.918 100.157 147.443 101.977 147.443C103.797 147.443 105.273 148.919 105.273 150.739Z" fill="#407BFF"/>
<path d="M118.457 156.151C118.457 157.972 116.981 159.447 115.161 159.447C113.34 159.447 111.865 157.971 111.865 156.151C111.865 154.331 113.341 152.855 115.161 152.855C116.982 152.855 118.457 154.331 118.457 156.151Z" fill="#407BFF"/>
<path d="M131.249 142.13C131.249 143.95 129.773 145.426 127.953 145.426C126.133 145.426 124.657 143.95 124.657 142.13C124.657 140.309 126.133 138.834 127.953 138.834C129.773 138.833 131.249 140.309 131.249 142.13Z" fill="#407BFF"/>
<path d="M144.336 160.987C144.336 162.807 142.86 164.283 141.04 164.283C139.219 164.283 137.744 162.807 137.744 160.987C137.744 159.166 139.22 157.691 141.04 157.691C142.86 157.691 144.336 159.167 144.336 160.987Z" fill="#407BFF"/>
<path d="M157.378 160.477H151.242V183.777H157.378V160.477Z" fill="#407BFF"/>
<path opacity="0.3" d="M105.044 161.198H98.909V183.776H105.044V161.198Z" fill="black"/>
<path opacity="0.3" d="M131.021 150.739H124.885V183.776H131.021V150.739Z" fill="black"/>
<path opacity="0.3" d="M157.378 160.477H151.242V183.777H157.378V160.477Z" fill="black"/>
<path d="M170.95 168.257H164.815V183.776H170.95V168.257Z" fill="#407BFF"/>
<path d="M153.803 152.658L167.883 160.477" stroke="#263238" stroke-width="0.5" stroke-miterlimit="10"/>
<path d="M157.835 152.658C157.835 154.478 156.359 155.954 154.539 155.954C152.719 155.954 151.243 154.478 151.243 152.658C151.243 150.837 152.719 149.362 154.539 149.362C156.359 149.362 157.835 150.838 157.835 152.658Z" fill="#407BFF"/>
<path d="M167.883 163.773C169.703 163.773 171.179 162.297 171.179 160.477C171.179 158.657 169.703 157.181 167.883 157.181C166.063 157.181 164.587 158.657 164.587 160.477C164.587 162.297 166.063 163.773 167.883 163.773Z" fill="#407BFF"/>
<path d="M651.671 421.876C683.203 421.876 708.765 396.314 708.765 364.782C708.765 333.25 683.203 307.688 651.671 307.688C620.139 307.688 594.577 333.25 594.577 364.782C594.577 396.314 620.139 421.876 651.671 421.876Z" fill="white" stroke="#263238" stroke-miterlimit="10"/>
<path d="M680.332 354.36H623.83V394.261H680.332V354.36Z" fill="#407BFF"/>
<path opacity="0.3" d="M650.587 354.36H623.83V394.261H650.587V354.36Z" fill="black"/>
<path d="M623.83 354.36L614.631 369.81H641.2L650.587 354.36H623.83Z" fill="#407BFF"/>
<path d="M650.587 354.36L660.472 369.81H688.712L680.332 354.36H650.587Z" fill="#407BFF"/>
<path opacity="0.3" d="M650.587 354.36L660.472 369.81H688.712L680.332 354.36H650.587Z" fill="black"/>
<path d="M642.046 344.707C639.756 341.492 637.466 338.276 635.176 335.061C634.898 334.671 634.248 335.045 634.528 335.439C636.818 338.654 639.108 341.87 641.398 345.085C641.676 345.475 642.326 345.101 642.046 344.707Z" fill="#263238"/>
<path d="M651.461 344.427C651.371 339.185 651.282 333.943 651.192 328.701C651.184 328.219 650.434 328.217 650.442 328.701C650.532 333.943 650.621 339.185 650.711 344.427C650.72 344.909 651.47 344.911 651.461 344.427Z" fill="#263238"/>
<path d="M660.88 344.754C662.562 341.759 664.244 338.765 665.926 335.77C666.163 335.349 665.515 334.97 665.278 335.392C663.596 338.386 661.914 341.381 660.232 344.375C659.996 344.797 660.643 345.175 660.88 344.754Z" fill="#263238"/>
<path d="M666.92 333.244C666.899 333.223 666.878 333.202 666.857 333.181C666.823 333.145 666.783 333.119 666.736 333.103C666.691 333.08 666.643 333.069 666.591 333.071C666.539 333.069 666.491 333.08 666.447 333.103C666.401 333.118 666.36 333.144 666.326 333.181C666.306 333.206 666.287 333.232 666.267 333.257C666.233 333.316 666.216 333.379 666.216 333.446C666.221 333.479 666.225 333.512 666.229 333.546C666.247 333.61 666.279 333.665 666.325 333.711C666.346 333.732 666.367 333.753 666.388 333.774C666.422 333.811 666.462 333.836 666.509 333.852C666.554 333.875 666.602 333.886 666.653 333.884C666.705 333.886 666.753 333.875 666.797 333.852C666.844 333.837 666.884 333.811 666.918 333.774C666.937 333.749 666.957 333.723 666.977 333.698C667.011 333.639 667.028 333.576 667.028 333.509C667.024 333.476 667.019 333.443 667.015 333.409C666.999 333.346 666.967 333.291 666.92 333.244Z" fill="#263238"/>
<path d="M542.776 187.217L553.989 240.017C554.499 242.421 552.014 244.355 549.809 243.27L510.644 223.996C508.933 223.154 508.462 220.933 509.683 219.469L537.635 185.942C539.208 184.055 542.265 184.813 542.776 187.217Z" fill="#407BFF"/>
<path opacity="0.3" d="M542.776 187.217L553.989 240.017C554.499 242.421 552.014 244.355 549.809 243.27L510.644 223.996C508.933 223.154 508.462 220.933 509.683 219.469L537.635 185.942C539.208 184.055 542.265 184.813 542.776 187.217Z" fill="black"/>
<path d="M545.224 231.121L540.874 200.947C559.538 198.257 575.629 186.561 583.92 169.661C597.745 141.481 586.066 107.308 557.886 93.484C529.706 79.659 495.533 91.338 481.709 119.518C475.725 131.715 474.298 145.664 477.691 158.795L448.174 166.421C442.963 146.245 445.152 124.82 454.34 106.091C475.568 62.82 528.042 44.886 571.314 66.114C614.585 87.342 632.518 139.816 611.29 183.088C598.56 209.037 573.862 226.993 545.224 231.121Z" fill="#407BFF"/>
<g opacity="0.3">
<path d="M545.224 231.121L540.874 200.947C559.538 198.257 575.629 186.561 583.92 169.661C597.745 141.481 586.066 107.308 557.886 93.484C529.706 79.659 495.533 91.338 481.709 119.518C475.725 131.715 474.298 145.664 477.691 158.795L448.174 166.421C442.963 146.245 445.152 124.82 454.34 106.091C475.568 62.82 528.042 44.886 571.314 66.114C614.585 87.342 632.518 139.816 611.29 183.088C598.56 209.037 573.862 226.993 545.224 231.121Z" fill="black"/>
</g>
<path d="M546.134 173.742C564.922 168.471 575.88 148.967 570.61 130.18C565.339 111.392 545.835 100.434 527.048 105.704C508.26 110.975 497.302 130.478 502.572 149.266C507.843 168.054 527.346 179.012 546.134 173.742Z" fill="#407BFF"/>
<path opacity="0.3" d="M546.134 173.742C564.922 168.471 575.88 148.967 570.61 130.18C565.339 111.392 545.835 100.434 527.048 105.704C508.26 110.975 497.302 130.478 502.572 149.266C507.843 168.054 527.346 179.012 546.134 173.742Z" fill="black"/>
<path d="M556.762 165.417C572.031 153.266 574.559 131.037 562.408 115.767C550.257 100.497 528.027 97.9695 512.758 110.121C497.488 122.272 494.96 144.501 507.112 159.771C519.263 175.04 541.492 177.568 556.762 165.417Z" fill="#407BFF"/>
<path d="M559.92 152.871C568.246 138.962 563.72 120.936 549.811 112.61C535.901 104.283 517.875 108.809 509.549 122.719C501.222 136.629 505.748 154.655 519.658 162.981C533.568 171.307 551.594 166.781 559.92 152.871Z" fill="white"/>
<path d="M520.663 158.621L524.562 152.844C524.676 152.921 524.791 152.997 524.907 153.071L521.15 158.941C520.987 158.837 520.824 158.73 520.663 158.621ZM512.879 150.197C512.783 150.027 512.688 149.856 512.596 149.683L518.744 146.401C518.809 146.522 518.875 146.642 518.942 146.761L512.879 150.197ZM531.953 162.784L532.718 155.857L533.15 155.901L532.514 162.841C532.326 162.824 532.139 162.805 531.953 162.784ZM509.616 138.617C509.61 138.424 509.606 138.231 509.603 138.038L516.573 137.969L516.581 138.389L509.616 138.617ZM543.878 161.222L541.341 154.731L541.733 154.574L544.511 160.966L544.345 161.035C544.233 161.081 544.056 161.152 543.878 161.222ZM512.112 126.855C512.196 126.68 512.283 126.506 512.37 126.334L518.578 129.503C518.515 129.625 518.454 129.75 518.394 129.874L512.112 126.855ZM548.508 149.675C548.594 149.576 548.679 149.475 548.763 149.374L554.145 153.803C554.018 153.958 553.889 154.11 553.757 154.261L548.508 149.675ZM523.928 123.189L519.793 117.58L520.246 117.253L524.283 122.933L523.928 123.189ZM552.448 141.938L552.54 141.523L559.356 142.98C559.316 143.166 559.275 143.353 559.231 143.538L552.448 141.938ZM531.961 119.83L530.886 112.944C531.071 112.915 531.257 112.888 531.442 112.863L532.393 119.766L531.961 119.83ZM552.35 133.244C552.316 133.113 552.281 132.983 552.244 132.853L558.945 130.938C558.999 131.128 559.051 131.318 559.1 131.508L552.35 133.244ZM540.622 120.593L542.872 113.997C543.061 114.062 543.248 114.128 543.436 114.198L540.998 120.728C540.873 120.68 540.748 120.635 540.622 120.593ZM548.226 125.59L547.943 125.285L553 120.489C553.133 120.63 553.265 120.771 553.394 120.914L548.226 125.59Z" fill="black"/>
<path d="M527.364 126.881L534.37 138.934L545.705 127.907" stroke="black" stroke-miterlimit="10" stroke-linecap="round" stroke-linejoin="round"/>
<path d="M536.415 139.48C535.617 140.39 534.232 140.481 533.322 139.683C532.412 138.885 532.321 137.5 533.119 136.59C533.917 135.68 535.302 135.589 536.212 136.387C537.122 137.185 537.213 138.57 536.415 139.48Z" fill="black"/>
<path opacity="0.3" d="M515.162 118.898C526.795 107.606 545.378 107.882 556.67 119.515C559.445 122.373 561.512 125.654 562.893 129.14C561.584 124.773 559.255 120.641 555.86 117.144C544.568 105.512 525.984 105.235 514.351 116.527C505.577 125.044 503.272 137.708 507.511 148.41C504.467 138.252 507.028 126.795 515.162 118.898Z" fill="black"/>
<path d="M240.241 347.492C214.744 319.215 200.703 282.657 200.703 244.553C200.703 174.743 247.8 113.589 315.234 95.838L303.903 110.064L323.758 128.217C271.018 142.099 234.185 189.938 234.185 244.553C234.185 274.36 245.166 302.955 265.107 325.071L240.241 347.492Z" fill="#407BFF"/>
<path d="M243.546 349.408C244.788 349.098 285.774 349.408 285.774 349.408L265.107 325.071L240.241 347.492L243.546 349.408Z" fill="#407BFF"/>
<g opacity="0.3">
<path d="M240.241 347.492C214.744 319.215 200.703 282.657 200.703 244.553C200.703 174.743 247.8 113.589 315.234 95.838L303.903 110.064L323.758 128.217C271.018 142.099 234.185 189.938 234.185 244.553C234.185 274.36 245.166 302.955 265.107 325.071L240.241 347.492Z" fill="black"/>
<path d="M243.546 349.408C244.788 349.098 285.774 349.408 285.774 349.408L265.107 325.071L240.241 347.492L243.546 349.408Z" fill="black"/>
</g>
<path d="M546.132 403.89V349.912C546.132 347.455 548.965 346.079 550.896 347.598L585.203 374.587C586.701 375.766 586.701 378.036 585.203 379.215L550.896 406.204C548.965 407.724 546.132 406.348 546.132 403.89Z" fill="#407BFF"/>
<path d="M551.697 360.856H361.008V392.946H551.697V360.856Z" fill="#407BFF"/>
<path opacity="0.3" d="M584.903 374.587L550.596 347.598C548.664 346.078 545.831 347.454 545.831 349.912V360.856H352.894V392.946H545.832V403.89C545.832 406.347 548.665 407.723 550.597 406.204L584.904 379.215C586.402 378.037 586.402 375.766 584.903 374.587Z" fill="black"/>
<path d="M352.851 90.872V123.765C418.011 123.765 471.023 176.777 471.023 241.937C471.023 307.097 418.011 360.109 352.851 360.109H141.735V393.002H352.851C436.148 393.002 503.915 325.235 503.915 241.937C503.915 158.639 436.148 90.872 352.851 90.872Z" fill="#407BFF"/>
<path d="M359.243 80.439L359.134 134.417C359.129 136.874 356.293 138.245 354.365 136.721L320.112 109.663C318.616 108.481 318.621 106.211 320.121 105.035L354.482 78.115C356.418 76.6 359.248 77.982 359.243 80.439Z" fill="#407BFF"/>
<path opacity="0.3" d="M359.216 361.053C359.87 361.053 345.817 369.954 336.32 369.877L335.423 393.891H329.139L317.126 361.801L359.216 361.053Z" fill="black"/>
<path d="M347.626 194.909C352.033 201.869 353.652 206.081 354.339 212.919C355.142 220.911 355.107 228.001 353.415 230.137C351.195 232.939 325.954 236.644 311.719 236.727C311.203 236.73 310.567 232.239 310.567 232.239C310.567 232.239 308.756 236.738 308.087 236.739C304.202 236.743 301.71 236.715 301.71 236.715C301.71 236.715 304.617 229.95 307.451 205.901C308.835 194.155 320.343 188.958 327.21 187.761C338.655 185.767 347.626 194.909 347.626 194.909Z" fill="#263238"/>
<path d="M314.88 218.99C310.862 212.731 306.368 195.57 321.616 189.504C340.65 181.932 349.885 193.868 352.116 206.016C354.347 218.163 347.882 227.722 335.057 227.388C322.231 227.054 317.659 223.319 314.88 218.99Z" fill="#263238"/>
<path d="M346.708 242.07C346.708 242.07 342.426 245.363 336.912 250.114C335.764 251.104 334.499 251.96 333.16 252.671C329.547 254.59 326.254 255.688 325.362 253.946C325.164 253.563 325.011 253.148 324.898 252.713C324.141 249.796 324.451 245.696 326.809 243.819C329.467 241.703 330.749 239.893 330.27 237.029C330.018 235.405 329.431 233.729 328.744 232.101L330.836 229.655L341.777 218.613C341.504 225.985 340.945 238.067 346.708 242.07Z" fill="#EBB373"/>
<path opacity="0.2" d="M330.359 237.657C333.368 235.871 336.67 232.772 336.274 229.233C336.098 227.742 335.776 226.33 335.419 225.425L329.307 233.517C329.809 234.821 329.992 235.683 330.359 237.657Z" fill="black"/>
<path d="M344.875 206.766C343.845 218.008 343.647 222.775 337.845 228.67C329.119 237.536 315.695 234.554 313.384 223.411C311.304 213.382 313.337 196.683 324.374 191.959C335.246 187.304 345.904 195.525 344.875 206.766Z" fill="#EBB373"/>
<path d="M330.78 210.839C330.717 211.971 330.021 212.903 329.226 212.919C328.431 212.936 327.837 212.032 327.9 210.899C327.963 209.767 328.659 208.835 329.454 208.819C330.249 208.802 330.842 209.707 330.78 210.839Z" fill="#263238"/>
<path d="M319.093 210.634C319.03 211.715 318.346 212.604 317.565 212.621C316.784 212.637 316.201 211.775 316.264 210.694C316.327 209.613 317.011 208.724 317.792 208.707C318.573 208.69 319.155 209.553 319.093 210.634Z" fill="#263238"/>
<path d="M332.369 206.688C332.215 206.719 332.055 206.692 331.926 206.601C329.93 205.177 327.861 205.937 327.837 205.946C327.53 206.059 327.202 205.926 327.108 205.638C327.015 205.351 327.191 205.023 327.501 204.905C327.609 204.865 330.206 203.908 332.683 205.676C332.93 205.852 332.961 206.203 332.752 206.458C332.651 206.581 332.513 206.66 332.369 206.688Z" fill="#263238"/>
<path d="M315.116 205.175C314.992 205.117 314.893 205.015 314.847 204.881C314.752 204.605 314.916 204.3 315.213 204.199C318.194 203.188 320.242 204.635 320.329 204.698C320.572 204.874 320.609 205.207 320.411 205.442C320.214 205.677 319.859 205.725 319.616 205.551C319.537 205.493 317.931 204.394 315.56 205.198C315.406 205.25 315.247 205.237 315.116 205.175Z" fill="#263238"/>
<path d="M335.482 196.771C331.906 200.527 333.684 214.714 343.724 216.567C355.29 213.845 346.156 185.561 335.482 196.771Z" fill="#263238"/>
<path d="M322.056 221.134C322.971 222.543 324.072 225.272 324.072 225.272C324.337 225.217 324.603 225.162 324.864 225.093C328.443 224.255 329.827 222.684 330.275 221.197C330.517 220.382 330.47 219.585 330.348 218.955C330.215 218.224 329.953 217.733 329.953 217.733C328.321 219.311 325.045 220.348 323.272 220.83C322.531 221.038 322.056 221.134 322.056 221.134Z" fill="#263238"/>
<path d="M323.272 220.829L323.898 222.034C327.267 221.237 329.532 220.224 330.348 218.955C330.215 218.224 329.953 217.733 329.953 217.733C328.321 219.31 325.045 220.348 323.272 220.829Z" fill="white"/>
<path d="M324.864 225.093C328.443 224.255 329.827 222.684 330.275 221.197C329.067 221.53 327.646 222.065 326.485 222.915C325.595 223.561 325.124 224.347 324.864 225.093Z" fill="#DC5753"/>
<path d="M322.244 209.844C322.244 209.844 320.126 214.911 317.917 217.391C319.355 218.781 321.921 218.05 321.921 218.05L322.244 209.844Z" fill="#E4873E"/>
<path d="M327.21 208.285L329.79 208.894C328.621 210.209 327.21 208.285 327.21 208.285Z" fill="#263238"/>
<path d="M315.68 208.172L318.26 208.781C317.091 210.096 315.68 208.172 315.68 208.172Z" fill="#263238"/>
<path d="M324.451 189.548C320.012 191.054 315.296 198.737 314.51 201.693C320.823 202.727 337.84 196.813 337.84 196.813C337.84 196.813 349.195 199.949 343.443 194.192C337.692 188.434 324.451 189.548 324.451 189.548Z" fill="#263238"/>
<path d="M348.276 215.928C346.948 218.233 344.791 219.681 342.812 220.177C339.836 220.923 338.3 216.139 339.315 213.158C340.229 210.474 343.153 208.698 346.049 209.283C348.903 209.86 349.794 213.292 348.276 215.928Z" fill="#EBB373"/>
<path d="M309.062 203.741C308.429 208.69 307.786 213.683 306.117 218.385C304.449 223.087 300.984 232.785 296.835 235.555" stroke="#263238" stroke-width="0.5" stroke-miterlimit="10"/>
<path d="M344.005 221.979C345.163 221.979 346.101 221.041 346.101 219.883C346.101 218.725 345.163 217.787 344.005 217.787C342.847 217.787 341.909 218.725 341.909 219.883C341.909 221.041 342.847 221.979 344.005 221.979Z" fill="#407BFF"/>
<path opacity="0.1" d="M345.922 212.722C344.93 212.442 343.815 212.643 342.983 213.25C342.151 213.858 341.62 214.859 341.585 215.889" stroke="black" stroke-width="0.5" stroke-miterlimit="10" stroke-linecap="round" stroke-linejoin="round"/>
<path d="M258.266 314.454C258.825 312.904 262.821 307.715 264.95 305.78C267.079 303.845 274.61 299.614 274.61 299.614L280.972 305.637C280.972 305.637 280.375 309.088 277.82 310.355C276.347 311.086 274.816 311.676 274.816 311.676C274.816 311.676 274.835 313.026 274.485 314.443C274.097 316.013 273.288 317.865 272.013 317.478C270.74 317.091 271.316 312.819 271.405 312.204C271.311 312.827 270.592 317.167 268.829 316.879C267.128 316.601 267.977 312.097 267.977 312.097C267.977 312.097 267.367 314.141 267.047 315.184C266.727 316.226 265.435 316.877 264.754 315.455C263.964 313.807 264.459 311.432 264.459 311.432C264.459 311.432 263.214 312.579 261.111 315.235C259.597 317.146 257.793 315.765 258.266 314.454Z" fill="#EBB373"/>
<path opacity="0.1" d="M271.259 313.012C271.422 312.204 271.587 311.391 271.897 310.628C272.207 309.865 272.675 309.145 273.343 308.663" stroke="black" stroke-width="0.5" stroke-miterlimit="10" stroke-linecap="round" stroke-linejoin="round"/>
<path opacity="0.1" d="M267.742 312.72C267.905 311.912 268.069 311.099 268.38 310.335C268.69 309.572 269.158 308.852 269.826 308.37" stroke="black" stroke-width="0.5" stroke-miterlimit="10" stroke-linecap="round" stroke-linejoin="round"/>
<path opacity="0.1" d="M264.456 311.574C264.619 310.766 264.783 309.953 265.094 309.19C265.404 308.427 265.872 307.707 266.54 307.225" stroke="black" stroke-width="0.5" stroke-miterlimit="10" stroke-linecap="round" stroke-linejoin="round"/>
<path d="M307.995 258.744C307.995 259.454 305.993 284.962 305.993 284.962C304.574 287.623 275.359 297.763 271.62 301.475L278.435 308.487C278.435 308.487 313.194 301.475 318.806 297.395C323.594 293.914 323.191 287.807 323.191 279.468C323.191 271.129 326.101 259.478 326.101 259.478L307.995 258.744Z" fill="#EBB373"/>
<path d="M321.226 243.672C307.445 246.029 305.553 266.429 305.553 266.429L303.459 282.628L295.643 288.331L302.95 303.941C302.95 303.941 318.554 298.001 325.415 293.941C332.276 289.88 332.454 258.759 332.454 258.759L321.226 243.672Z" fill="#407BFF"/>
<path opacity="0.2" d="M318.753 296.409C319.01 296.525 312.979 299.888 312.979 299.888C312.908 299.93 310.801 290.981 310.73 291.023C307.41 276.025 309.655 264.072 309.655 264.072C312.172 269.305 318.116 292.025 318.753 296.409Z" fill="black"/>
<path d="M321.782 314.867C333.267 313.72 348.208 312.803 367.652 312.365C367.652 312.365 382.149 346.51 364.958 356.711C359.763 359.793 351.19 361.012 341.754 361.213C330.806 361.446 321.783 352.672 321.783 341.721L321.782 314.867Z" fill="#263238"/>
<path d="M359.333 342.99V359.033C345.035 363.157 315.358 361.587 297.717 360.147C289.773 359.498 283.664 352.863 283.664 344.892V331.729C283.664 327.365 286.362 323.463 290.447 321.926C298.999 318.709 314.562 313.916 330.842 314.167C346.627 314.412 359.333 327.203 359.333 342.99Z" fill="#263238"/>
<path d="M370.241 312.365C368.019 309.433 362.874 302.421 362.222 295.042C362.221 295.021 362.22 295 362.219 294.979C362.179 294.505 362.155 294.031 362.154 293.555C362.037 290.418 362.056 286.702 362.263 282.244C362.291 281.548 362.333 280.81 362.374 280.072C362.5 277.732 362.681 275.212 362.904 272.469C363.322 267.553 363.921 261.942 364.728 255.564C364.909 254.088 366.3 251.799 366.508 250.239C367.441 243.291 361.107 238.269 354.27 238.548C352.446 238.618 350.51 238.743 348.547 238.938C340.874 239.662 334.58 240.317 327.91 241.904C325.696 242.419 323.412 243.046 321.226 243.673C313.372 245.929 309.752 255.983 309.654 264.073C309.557 271.613 314.845 287.003 318.467 300.52C319 308.274 314.765 312.497 316.04 315.2C317.315 317.903 354.796 310.559 370.24 319.768C370.24 319.768 372.612 315.494 370.241 312.365Z" fill="#407BFF"/>
<path opacity="0.3" d="M370.241 312.365C368.019 309.433 362.874 302.421 362.222 295.042C362.221 295.021 362.22 295 362.219 294.979C362.179 294.505 362.155 294.031 362.154 293.555C362.037 290.418 362.056 286.702 362.263 282.244C362.291 281.548 362.333 280.81 362.374 280.072C362.5 277.732 362.681 275.212 362.904 272.469C363.322 267.553 363.921 261.942 364.728 255.564C364.909 254.088 366.3 251.799 366.508 250.239C367.441 243.291 361.107 238.269 354.27 238.548C352.446 238.618 350.51 238.743 348.547 238.938C340.874 239.662 334.58 240.317 327.91 241.904C325.696 242.419 323.412 243.046 321.226 243.673C313.372 245.929 309.752 255.983 309.654 264.073C309.557 271.613 314.845 287.003 318.467 300.52C319 308.274 314.765 312.497 316.04 315.2C317.315 317.903 354.796 310.559 370.24 319.768C370.24 319.768 372.612 315.494 370.241 312.365Z" fill="white"/>
<path opacity="0.2" d="M364.271 302.568C364.271 302.568 351.044 305.473 344.889 305.753C338.734 306.033 325.416 310.229 325.416 310.229L320.679 313.167L319.01 309.259L326.984 302.048L361.987 294.953C362.414 297.878 364.021 301.979 364.271 302.568Z" fill="black"/>
<path opacity="0.2" d="M349.123 259.003L347.452 281.617L339.954 288.966L345.201 293.047L352.338 288.741L356.03 276.025L349.123 259.003Z" fill="black"/>
<path d="M292.564 465.439L310.117 457.695L315.668 451.497L317.387 453.831L319.485 452.916C320.463 445.125 316.678 441.482 314.69 439.826C314.548 439.7 314.343 439.558 314.107 439.369C314.028 439.306 313.949 439.243 313.87 439.195C313.838 439.179 313.807 439.148 313.776 439.132C313.697 439.069 313.602 439.006 313.508 438.927C313.493 438.911 313.477 438.911 313.445 438.896V438.88C313.398 438.848 313.351 438.817 313.287 438.785L303.651 443.043C303.651 443.043 303.493 443.548 303.194 444.368C302.232 447.08 299.851 453.263 297.217 456.559C297.106 456.701 296.996 456.843 296.885 456.969C296.57 457.347 296.238 457.679 295.907 457.947C288.526 463.877 292.564 465.439 292.564 465.439Z" fill="#263238"/>
<path d="M296.848 456.923C299.593 457.995 303.472 455.283 306.421 451.734C308.077 449.731 309.67 446.529 311.073 443.943C311.988 442.271 312.824 440.852 313.549 440.174C313.959 439.811 314.338 439.653 314.669 439.811C314.669 439.811 314.653 439.795 314.653 439.779C314.511 439.653 314.306 439.511 314.07 439.322C314.007 439.274 313.928 439.211 313.833 439.148C313.801 439.132 313.77 439.101 313.739 439.085C313.66 439.022 313.565 438.959 313.471 438.88C313.456 438.864 313.439 438.864 313.408 438.849V438.833C313.361 438.801 313.314 438.77 313.251 438.739C312.242 437.982 311.122 437.209 311.122 437.209L302.057 439.478L302.763 442.949C301.754 446.529 299.625 453.342 297.18 456.512C297.068 456.655 296.958 456.797 296.848 456.923Z" fill="#EBB373"/>
<path d="M282.091 389.422C287.687 403.321 296.376 421.031 302.789 443.239C302.914 443.643 303.026 444.048 303.138 444.452C303.263 444.884 303.389 445.302 303.514 445.734L310.136 444.117L310.426 442.965C310.426 442.965 312.714 441.188 312.325 440.785C312.071 440.523 312.242 440.032 312.199 439.614V439.6C310.415 424.112 303.542 367.261 296.725 355.453C296.725 355.453 304.448 356.889 310.303 355.899C314.527 355.188 319.643 325.982 319.643 325.982C319.643 325.982 308.881 322.887 297.84 322.887H297.687C297.687 322.887 275.984 329.307 270.466 334.169C265.28 338.738 264.503 346.225 267.379 355.124C270.015 363.285 275.157 372.201 282.091 389.422Z" fill="#EBB373"/>
<path opacity="0.1" d="M275.889 341.194C277.174 336.144 286.472 331.204 296.078 328.556C297.638 326.535 293.647 324.147 293.647 324.147L312.555 322.436L315.855 324.811L321.497 325.986L316.47 348.578L295.814 352.195L308.881 412.833L310.425 424.814C310.425 424.814 288.293 377.307 283.663 367.205C279.034 357.104 273.662 349.95 275.889 341.194Z" fill="black"/>
<path d="M319.646 325.987C319.646 325.987 290.139 332.238 284.375 336.791C279.466 340.668 279.333 345.73 280.924 350.509C285.322 363.721 301.1 385.752 319.161 448.984L329.51 445.734C328.518 445.733 325.917 412.72 325.149 386.204C324.787 373.696 318.373 362.911 315.863 358.555C315.863 358.555 326.41 359.979 332.263 358.997C339.784 357.737 344.539 332.642 319.646 325.987Z" fill="#EBB373"/>
<path opacity="0.2" d="M316.471 359.741C316.471 359.741 312.556 353.248 307.675 350.51C307.675 350.51 313.682 350.902 317.436 358.745L315.862 358.556L316.471 359.741Z" fill="black"/>
<path d="M333.022 459.349L330.866 459.819L329.074 456.837C328.856 456.474 328.359 456.404 328.049 456.691L321.92 462.368L305.18 466.042C305.18 466.042 301.453 462.102 309.775 459.591C310.172 459.471 310.517 459.16 310.892 458.857C315.01 455.698 319.947 446.994 319.947 446.994L329.865 444.817C329.865 444.817 330.32 445.238 330.991 446.068C332.555 448.014 335.431 452.184 333.022 459.349Z" fill="#263238"/>
<path d="M330.992 446.069C330.995 446.084 330.999 446.099 330.999 446.099C329.369 444.927 324.816 452.646 320.93 455.787C317.458 458.584 313.266 460.403 310.892 458.857C315.01 455.698 320.166 444.715 320.166 444.715L328.142 442.965C328.142 442.965 330.321 445.239 330.992 446.069Z" fill="#EBB373"/>
<path d="M300.596 330.263L329.69 319.195C330.337 318.949 330.18 317.91 329.494 317.902L282.802 317.343C282.689 317.342 282.578 317.374 282.481 317.437L264.527 329.064C263.992 329.41 264.218 330.301 264.841 330.301H300.393C300.463 330.301 300.531 330.288 300.596 330.263Z" fill="#263238"/>
<path opacity="0.7" d="M300.596 330.263L329.69 319.195C330.337 318.949 330.18 317.91 329.494 317.902L282.802 317.343C282.689 317.342 282.578 317.374 282.481 317.437L264.527 329.064C263.992 329.41 264.218 330.301 264.841 330.301H300.393C300.463 330.301 300.531 330.288 300.596 330.263Z" fill="white"/>
<path opacity="0.7" d="M300.701 326.965L319.462 320.048L297.484 319.589L300.701 326.965Z" fill="white"/>
<path opacity="0.3" d="M329.69 319.196L300.596 330.264C300.531 330.289 300.462 330.301 300.393 330.301H299.94L299.393 328.697L329.494 317.902C330.18 317.911 330.338 318.95 329.69 319.196Z" fill="black"/>
<path d="M262.618 330.301H300.497C301.151 330.297 301.676 329.868 301.671 329.343C301.67 329.244 301.65 329.146 301.611 329.053L284.76 290.421C284.334 289.318 283.066 288.564 281.627 288.558H243.724C243.083 288.558 242.564 288.975 242.564 289.49C242.564 289.598 242.587 289.705 242.633 289.806L259.484 328.438C259.917 329.538 261.182 330.29 262.618 330.301Z" fill="#263238"/>
<path opacity="0.7" d="M243.725 288.558H281.628C283.067 288.563 284.336 289.317 284.761 290.421L301.612 329.053C301.651 329.147 301.671 329.245 301.672 329.343C301.678 329.868 301.152 330.296 300.498 330.301H262.619C261.182 330.29 259.917 329.538 259.485 328.438L242.634 289.806C242.588 289.705 242.565 289.598 242.565 289.49C242.565 288.975 243.084 288.558 243.725 288.558Z" fill="white"/>
<path d="M267.2 310.29C268.019 312.144 269.678 313.417 270.915 313.158C272.152 312.899 272.482 311.209 271.688 309.35C270.893 307.491 269.215 306.247 267.978 306.506C266.741 306.765 266.371 308.387 267.2 310.29Z" fill="white"/>
<path opacity="0.3" d="M281.402 288.558H281.627C283.066 288.563 284.335 289.317 284.76 290.421L301.611 329.053C301.65 329.147 301.67 329.245 301.671 329.343C301.677 329.868 301.151 330.296 300.497 330.301H299.284L281.402 288.558Z" fill="black"/>
<path d="M349.854 256.867C349.854 257.577 352.132 282.844 352.132 282.844C350.713 285.505 321.498 295.645 317.759 299.357L324.574 306.369C324.574 306.369 359.333 299.357 364.945 295.277C369.733 291.796 369.33 285.689 369.33 277.35C369.33 269.011 367.507 256.867 367.507 256.867H349.854Z" fill="#EBB373"/>
<path d="M352.801 241.276C345.625 244.273 351.103 282.697 351.103 282.697L344.039 285.686L348.38 302.046C348.38 302.046 357.079 300.395 365.772 298.622C374.961 296.748 376.308 275.535 371.709 258.356C367.11 241.178 361.196 237.77 352.801 241.276Z" fill="#407BFF"/>
<path d="M305.559 317.755C305.72 316.115 308.32 310.104 309.909 307.706C311.497 305.308 317.759 299.357 317.759 299.357L325.405 303.633C325.405 303.633 325.673 307.125 323.508 308.981C322.259 310.051 320.921 310.999 320.921 310.999C320.921 310.999 321.271 312.303 321.279 313.762C321.288 315.379 320.959 317.374 319.628 317.311C318.299 317.249 317.808 312.966 317.744 312.348C317.806 312.975 318.175 317.359 316.395 317.512C314.678 317.66 314.395 313.085 314.395 313.085C314.395 313.085 314.305 315.217 314.251 316.306C314.197 317.395 313.104 318.343 312.095 317.132C310.925 315.728 310.821 313.304 310.821 313.304C310.821 313.304 309.896 314.722 308.509 317.812C307.511 320.037 305.423 319.141 305.559 317.755Z" fill="#EBB373"/>
<path opacity="0.1" d="M317.8 313.167C317.76 312.344 317.72 311.515 317.833 310.699C317.946 309.883 318.223 309.071 318.753 308.439" stroke="black" stroke-width="0.5" stroke-miterlimit="10" stroke-linecap="round" stroke-linejoin="round"/>
<path opacity="0.1" d="M314.32 313.746C314.28 312.923 314.239 312.094 314.353 311.278C314.466 310.462 314.743 309.65 315.272 309.018" stroke="black" stroke-width="0.5" stroke-miterlimit="10" stroke-linecap="round" stroke-linejoin="round"/>
<path opacity="0.1" d="M310.853 313.443C310.813 312.62 310.772 311.791 310.886 310.975C310.999 310.159 311.276 309.347 311.805 308.715" stroke="black" stroke-width="0.5" stroke-miterlimit="10" stroke-linecap="round" stroke-linejoin="round"/>
<path d="M106.993 421.876C138.525 421.876 164.087 396.314 164.087 364.782C164.087 333.25 138.525 307.688 106.993 307.688C75.4608 307.688 49.899 333.25 49.899 364.782C49.899 396.314 75.4608 421.876 106.993 421.876Z" fill="white" stroke="#263238" stroke-miterlimit="10"/>
<path d="M117.811 401.272C117.811 405.001 112.626 407.991 106.321 407.89C100.016 407.789 94.954 404.743 94.999 401.014C95.044 397.285 100.184 394.295 106.478 394.407C112.772 394.519 117.855 397.554 117.811 401.272Z" fill="#263238"/>
<path d="M122.738 388.975C123.357 388.388 123.729 387.587 123.779 386.735C123.779 383.084 116.085 380.016 106.499 379.926C96.913 379.836 89.107 382.692 89.062 386.343C89.1 387.189 89.456 387.988 90.059 388.583C89.878 388.93 89.775 389.312 89.757 389.703C89.781 390.556 90.149 391.364 90.776 391.943C90.573 392.306 90.461 392.714 90.451 393.13C90.476 393.99 90.857 394.802 91.504 395.37C91.278 395.733 91.154 396.151 91.146 396.579C91.2 397.428 91.606 398.216 92.266 398.752C92.029 399.116 91.898 399.538 91.885 399.973C91.885 403.008 98.28 405.572 106.253 405.64C114.227 405.707 120.711 403.4 120.744 400.298C120.742 399.862 120.618 399.435 120.386 399.066C121.043 398.537 121.449 397.757 121.506 396.916C121.502 396.492 121.39 396.076 121.181 395.706C121.83 395.161 122.233 394.378 122.301 393.533C122.298 393.115 122.194 392.704 121.999 392.335C122.647 391.785 123.05 390.999 123.119 390.151C123.083 389.735 122.953 389.333 122.738 388.975Z" fill="#263238"/>
<path opacity="0.3" d="M122.738 388.975C123.357 388.388 123.729 387.587 123.779 386.735C123.779 383.084 116.085 380.016 106.499 379.926C96.913 379.836 89.107 382.692 89.062 386.343C89.1 387.189 89.456 387.988 90.059 388.583C89.878 388.93 89.775 389.312 89.757 389.703C89.781 390.556 90.149 391.364 90.776 391.943C90.573 392.306 90.461 392.714 90.451 393.13C90.476 393.99 90.857 394.802 91.504 395.37C91.278 395.733 91.154 396.151 91.146 396.579C91.2 397.428 91.606 398.216 92.266 398.752C92.029 399.116 91.898 399.538 91.885 399.973C91.885 403.008 98.28 405.572 106.253 405.64C114.227 405.707 120.711 403.4 120.744 400.298C120.742 399.862 120.618 399.435 120.386 399.066C121.043 398.537 121.449 397.757 121.506 396.916C121.502 396.492 121.39 396.076 121.181 395.706C121.83 395.161 122.233 394.378 122.301 393.533C122.298 393.115 122.194 392.704 121.999 392.335C122.647 391.785 123.05 390.999 123.119 390.151C123.083 389.735 122.953 389.333 122.738 388.975Z" fill="white"/>
<path d="M137.117 356.723C137.316 339.759 123.726 325.845 106.762 325.646C89.798 325.447 75.884 339.037 75.685 356.001C75.577 365.207 79.603 373.976 86.656 379.893C87.954 380.963 88.634 382.609 88.47 384.283C88.464 384.365 88.464 384.447 88.47 384.529C88.47 388.236 96.309 391.338 106.03 391.45C115.751 391.562 123.691 388.639 123.735 384.921C123.735 384.843 123.735 384.764 123.735 384.686C123.584 382.976 124.304 381.305 125.65 380.24C132.797 374.51 137.004 365.882 137.117 356.723Z" fill="#407BFF"/>
<path opacity="0.7" d="M137.117 356.723C137.316 339.759 123.726 325.845 106.762 325.646C89.798 325.447 75.884 339.037 75.685 356.001C75.577 365.207 79.603 373.976 86.656 379.893C87.954 380.963 88.634 382.609 88.47 384.283C88.464 384.365 88.464 384.447 88.47 384.529C88.47 388.236 96.309 391.338 106.03 391.45C115.751 391.562 123.691 388.639 123.735 384.921C123.735 384.843 123.735 384.764 123.735 384.686C123.584 382.976 124.304 381.305 125.65 380.24C132.797 374.51 137.004 365.882 137.117 356.723Z" fill="white"/>
<path opacity="0.2" d="M122.672 338.883C122.672 344.863 115.673 349.724 106.994 349.724C98.315 349.724 91.316 344.864 91.316 338.883C91.316 332.903 98.315 328.031 106.994 328.031C115.672 328.031 122.672 332.892 122.672 338.883Z" fill="white"/>
<path d="M82.995 368.039C80.322 363.455 79.26 357.953 80.034 352.704C80.809 347.455 83.416 342.494 87.299 338.878" stroke="white" stroke-miterlimit="10" stroke-linecap="round" stroke-linejoin="round"/>
<path d="M92.215 398.824C101.082 402.557 111.323 402.68 120.278 399.165C111.457 402.988 100.941 402.859 92.215 398.824Z" fill="#263238"/>
<path d="M92.006 395.527C100.873 399.26 111.114 399.382 120.069 395.868C111.248 399.691 100.732 399.562 92.006 395.527Z" fill="#263238"/>
<path d="M91.798 392.23C100.665 395.962 110.906 396.085 119.861 392.571C111.039 396.395 100.524 396.266 91.798 392.23Z" fill="#263238"/>
<path d="M99.758 384.941C102.114 376.92 102.528 368.17 100.942 359.907C100.686 358.571 100.083 356.962 98.884 356.932C97.812 356.905 97.107 358.223 96.876 359.417C96.058 363.639 98.247 367.927 101.046 370.843C102.562 372.422 104.399 373.798 106.45 373.899C108.508 374 110.473 372.781 111.963 371.159C114.815 368.054 116.235 363.191 115.202 358.853C114.765 357.019 113.463 355.048 111.825 355.398C110.838 355.609 110.116 356.652 109.862 357.759C109.608 358.866 109.732 360.036 109.877 361.169C110.92 369.336 112.914 377.344 115.789 384.918" stroke="#263238" stroke-miterlimit="10"/>
<path d="M422.526 410.165C422.526 410.165 521.161 387.057 525.852 407.601C532.549 436.927 461.383 456.655 423.478 455.447C385.574 454.239 422.526 410.165 422.526 410.165Z" fill="#263238"/>
<path opacity="0.2" d="M422.526 410.165C422.526 410.165 521.161 387.057 525.852 407.601C532.549 436.927 461.383 456.655 423.478 455.447C385.574 454.239 422.526 410.165 422.526 410.165Z" fill="black"/>
<path opacity="0.7" d="M493.488 413.94L447.167 443.378L453.349 452.163C453.349 452.163 450.093 456.988 443.894 442.165L472.552 423.221C472.552 423.221 463.582 422.321 463.807 420.918C464.188 418.615 483.894 414.234 492.881 412.26C493.345 412.093 493.856 412.333 494.024 412.797C494.193 413.26 493.952 413.772 493.488 413.94Z" fill="black"/>
<path opacity="0.7" d="M445.488 440.06L453.523 453.08C443.614 454.81 433.551 455.603 423.479 455.446C420.168 455.426 416.888 454.831 413.799 453.692L410.976 448.53L417.054 436.304L445.488 440.06Z" fill="black"/>
<path d="M460.824 434.883L440.221 447.949L443.913 457.948L468.103 447.078L460.824 434.883Z" fill="#B97964"/>
<path d="M428.88 451.298L430.902 458.49C430.902 458.49 432.421 458.81 432.894 460.323C433.16 461.173 432.534 463.517 432.534 463.517L437.949 483.335C437.978 483.327 439.308 482.968 439.836 482.587C440.479 482.123 441.001 481.647 441.419 481.165C442.882 479.474 443.043 477.025 443.098 475.211C443.189 472.17 444.937 463.287 444.937 463.287C444.937 463.287 445.604 460.973 448.048 458.934C449.411 457.797 450.041 456.362 449.914 455.473C449.657 453.66 448.355 452.98 446.66 453.184L444.691 453.424C443.284 452.376 442.852 450.604 443.743 448.896C443.743 448.896 444.907 444.579 443.097 445.305C442.064 445.72 437.516 447.749 433.875 449.245C433.027 449.594 432.223 449.923 431.519 450.212V450.214C429.954 450.855 428.88 451.298 428.88 451.298Z" fill="#263238"/>
<path d="M444.176 468.023C444.232 467.912 444.202 467.773 444.109 467.687C443.684 467.296 443.159 467.015 442.565 466.891C442.252 466.826 442.109 467.328 442.425 467.394C442.953 467.504 443.416 467.749 443.788 468.09C443.912 468.204 444.098 468.176 444.173 468.027C444.175 468.026 444.176 468.025 444.176 468.023Z" fill="#407BFF"/>
<path d="M444.581 466.269C444.637 466.158 444.607 466.019 444.514 465.933C444.088 465.542 443.564 465.261 442.97 465.137C442.657 465.072 442.514 465.574 442.83 465.641C443.357 465.751 443.82 465.996 444.193 466.337C444.318 466.451 444.503 466.423 444.578 466.274C444.58 466.272 444.581 466.271 444.581 466.269Z" fill="#407BFF"/>
<path d="M444.917 464.483C444.973 464.372 444.943 464.233 444.85 464.147C444.425 463.756 443.9 463.475 443.306 463.351C442.993 463.286 442.85 463.788 443.166 463.855C443.694 463.965 444.156 464.21 444.529 464.551C444.654 464.665 444.839 464.637 444.914 464.488C444.916 464.486 444.917 464.483 444.917 464.483Z" fill="#407BFF"/>
<path opacity="0.2" d="M431.518 450.211V450.213C429.954 450.855 428.88 451.297 428.88 451.297L430.902 458.489C430.902 458.489 432.421 458.809 432.894 460.322C433.16 461.172 432.534 463.516 432.534 463.516L437.949 483.334C437.978 483.326 439.308 482.967 439.836 482.586C440.132 482.373 440.395 482.157 440.641 481.939L431.912 450.05C431.782 450.103 431.641 450.161 431.518 450.211Z" fill="white"/>
<path d="M444.638 464.362C445.309 464.114 445.984 463.865 446.688 463.738C447.392 463.611 448.133 463.612 448.806 463.857C449.119 463.971 449.443 464.175 449.51 464.501C449.581 464.843 449.336 465.176 449.052 465.379C448.505 465.77 447.784 465.865 447.123 465.74C446.462 465.615 445.185 464.753 444.638 464.362Z" stroke="#407BFF" stroke-width="0.25" stroke-miterlimit="10"/>
<path d="M444.615 464.278C445.176 463.834 445.739 463.386 446.214 462.851C446.688 462.316 447.073 461.682 447.213 460.98C447.278 460.654 447.272 460.271 447.029 460.044C446.774 459.805 446.362 459.842 446.041 459.979C445.423 460.243 444.966 460.81 444.73 461.439C444.493 462.068 444.565 463.607 444.615 464.278Z" stroke="#407BFF" stroke-width="0.25" stroke-miterlimit="10"/>
<path d="M463.278 347.408C463.278 347.408 466.88 379.477 467.843 381.197C471.098 387.015 492.664 396.991 492.664 396.991L503.66 394.688L511.539 401.268L506.344 405.337L500.249 403.034C496.923 403.628 493.55 403.923 490.171 403.917C484.491 403.917 457.102 396.975 452.53 389.339C447.958 381.702 445.858 346.341 445.858 346.341L463.278 347.408Z" fill="#B97964"/>
<path d="M445.391 360.013C445.391 360.013 436.941 331.85 447.469 324.031C457.997 316.212 466.37 354.934 466.37 354.934L445.391 360.013Z" fill="#407BFF"/>
<path opacity="0.5" d="M445.391 360.013C445.391 360.013 436.941 331.85 447.469 324.031C457.997 316.212 466.37 354.934 466.37 354.934L445.391 360.013Z" fill="white"/>
<path d="M452.059 411.526L451.977 374.198L451.175 323.087L429.12 318.303L409.926 317.456L388.085 327.45L387.575 339.991C387.575 339.991 390.073 397.579 389.933 399.315C389.761 401.443 383.566 414.801 383.566 414.801C411.159 421.089 452.493 413.429 452.059 411.526Z" fill="#407BFF"/>
<path opacity="0.5" d="M452.059 411.526L451.977 374.198L451.175 323.087L429.12 318.303L409.926 317.456L388.085 327.45L387.575 339.991C387.575 339.991 390.073 397.579 389.933 399.315C389.761 401.443 383.566 414.801 383.566 414.801C411.159 421.089 452.493 413.429 452.059 411.526Z" fill="white"/>
<path d="M450.023 287.382C451.234 287.266 452.273 286.172 452.327 284.957C452.381 283.742 451.442 282.56 450.246 282.338L444.591 281.771C444.86 285.401 445.129 289.031 445.398 292.66C446.492 292.942 447.67 292.999 448.739 292.633C449.808 292.266 450.748 291.433 451.07 290.35C451.394 289.268 450.993 287.963 450.023 287.382Z" fill="#263238"/>
<path d="M428.416 308.316L416.266 293.027C416.266 293.027 416.261 293.039 416.258 293.08C416.255 294.525 416.209 296.177 416.09 297.939C416.085 297.951 414.785 297.315 414.78 297.327C414.26 305.271 411.119 318.822 411.264 319.994L424.032 326.338H426.597L426.806 318.845C425.523 315.61 426.733 311.838 428.416 308.316Z" fill="#B97964"/>
<path opacity="0.2" d="M426.597 313.473L418.912 307.399C418.721 310.49 420.336 315.347 426.499 317.872C426.135 316.013 426.257 314.695 426.597 313.473Z" fill="black"/>
<path d="M418.86 285.448C416.345 295.737 415.398 300.678 418.913 307.399C424.199 317.509 437.112 317.596 442.665 308.238C447.664 299.815 450.936 284.406 442.252 277.408C433.696 270.514 421.374 275.16 418.86 285.448Z" fill="#B97964"/>
<path d="M421.031 271.484C424.144 266.351 432.295 265.518 435.307 269.57C435.757 270.175 430.888 270.322 431.445 270.295L428.591 278.4C428.034 278.081 426.64 278.416 425.453 280.087C425.453 280.087 423.617 291.237 417.84 294.356C412.166 286.528 412.814 271.499 421.031 271.484Z" fill="#263238"/>
<path d="M412.259 292.626C412.259 295.476 413.584 298.05 415.278 299.667C417.826 302.099 420.784 300.218 421.486 296.949C422.118 294.006 421.554 289.195 418.318 288.001C415.13 286.826 412.259 289.368 412.259 292.626Z" fill="#B97964"/>
<path d="M432.791 294.07C432.47 295.103 432.76 296.105 433.438 296.309C434.116 296.512 434.926 295.84 435.247 294.807C435.568 293.774 435.278 292.772 434.6 292.568C433.922 292.364 433.112 293.037 432.791 294.07Z" fill="#263238"/>
<path d="M442.924 297.362C442.603 298.395 442.893 299.397 443.571 299.601C444.249 299.804 445.059 299.132 445.381 298.098C445.702 297.065 445.412 296.062 444.734 295.859C444.055 295.657 443.245 296.329 442.924 297.362Z" fill="#263238"/>
<path d="M439.357 294.602C439.357 294.602 440.641 299.31 441.229 302.105C441.37 302.774 440.87 303.426 440.187 303.445C438.698 303.485 437.301 302.651 437.301 302.651L439.357 294.602Z" fill="#A24E3F"/>
<path d="M431.711 287.872C431.847 287.984 432.039 288.022 432.217 287.955C434.339 287.155 435.864 288.229 435.879 288.24C436.106 288.404 436.424 288.354 436.59 288.129C436.756 287.904 436.705 287.589 436.48 287.425C436.4 287.367 434.49 286.021 431.858 287.014C431.595 287.113 431.463 287.404 431.562 287.664C431.594 287.748 431.646 287.818 431.711 287.872Z" fill="#263238"/>
<path d="M448.301 292.662C448.396 292.648 448.488 292.607 448.566 292.537C448.775 292.35 448.795 292.029 448.611 291.821C446.759 289.731 444.458 290.081 444.352 290.084C444.076 290.128 443.885 290.387 443.925 290.663C443.965 290.939 444.22 291.127 444.494 291.087C444.589 291.069 446.366 290.821 447.852 292.499C447.969 292.63 448.14 292.685 448.301 292.662Z" fill="#263238"/>
<path d="M431.939 304.756C432.292 305.045 432.67 305.301 433.069 305.522C433.198 305.591 433.358 305.556 433.448 305.44C433.507 305.301 433.452 305.14 433.322 305.065C431.257 303.956 429.846 301.927 429.524 299.605C429.507 299.461 429.383 299.353 429.237 299.358C429.105 299.351 428.992 299.453 428.986 299.585C428.985 299.605 428.986 299.625 428.991 299.645C429.234 301.68 430.299 303.527 431.939 304.756Z" fill="#263238"/>
<path d="M455.124 279.708C454.432 277.653 451.985 276.79 449.822 276.635C451.179 276.609 452.246 275.232 452.249 273.875C452.252 272.518 451.412 271.273 450.344 270.435C448.437 268.938 445.718 268.549 443.468 269.453C443.894 269.247 444.047 268.68 443.91 268.227C443.773 267.774 443.417 267.422 443.041 267.135C440.751 265.386 437.204 265.561 435.098 267.527C434.362 265.037 431.479 263.408 428.967 264.063C426.517 264.701 421.9 265.193 421.186 271.464C419.109 269.987 415.885 270.301 414.242 272.286C412.466 274.431 412.926 278.047 415.183 279.678C414.063 279.206 412.671 279.933 412.21 281.058C411.749 282.182 412.106 283.528 412.887 284.459C413.668 285.389 414.81 285.953 415.979 286.286C417.08 286.6 418.27 286.728 419.363 286.389C420.456 286.05 421.429 285.173 421.647 284.05C421.832 285.228 423.069 286.102 424.255 285.977C425.441 285.852 426.44 284.824 426.635 283.648C426.829 282.471 426.268 281.23 425.319 280.508C426.668 281.815 429.279 281.301 430.031 279.579C431.031 281.499 432.457 283.311 434.445 284.168C436.433 285.025 439.052 284.664 440.323 282.912C440.969 283.664 441.628 284.428 442.463 284.962C443.298 285.496 444.352 285.776 445.296 285.474C446.241 285.172 446.983 284.173 446.783 283.202C448.345 284.504 450.544 285.18 452.467 284.52C454.391 283.858 455.773 281.635 455.124 279.708Z" fill="#263238"/>
<path d="M420.807 325.729C420.807 325.729 426.162 330.497 428.903 324.334L430.331 325.446C430.331 325.446 430.192 330.031 427.595 331.564C428.225 334.108 439.096 371.131 441.042 389.791L438.07 397.357L430.176 391.126C430.176 391.126 426.344 359.112 425.032 331.914C421.871 330.843 419.37 328.472 418.209 325.446L420.807 325.729Z" fill="#407BFF"/>
<path opacity="0.2" d="M427.715 326.351L432.356 329.961L433.115 319.126L431.641 318.811L430.415 326.114L428.208 324.831L427.715 326.351Z" fill="black"/>
<path opacity="0.2" d="M405.352 319.549C405.274 319.585 416.281 333.006 416.281 333.006L420.017 330.161L422.586 327.985L423.253 327.165L408.684 317.045C408.684 317.045 406.731 319.039 406.53 319.039C406.329 319.039 405.352 319.549 405.352 319.549Z" fill="black"/>
<path d="M406.135 319.321L411.459 314.568L426.029 328.208L422.218 326.859L416.667 331.125L406.135 319.321Z" fill="#407BFF"/>
<path d="M426.029 328.208C425.706 327.592 426.344 315.445 426.344 315.445L432.357 318.731C432.083 318.675 431.902 328.973 431.736 328.973C431.569 328.973 428.316 325.456 428.316 325.456L426.029 328.208Z" fill="#407BFF"/>
<path opacity="0.2" d="M451.667 358.493L450.539 334.42L455.923 357.463L451.667 358.493Z" fill="black"/>
<path opacity="0.2" d="M404.975 362C405.655 361.867 409.094 360.74 409.094 360.74L401.449 339.471L411.945 363L405.635 365.511L404.975 362Z" fill="black"/>
<path opacity="0.5" d="M406.135 319.321L411.459 314.568L426.029 328.208L422.218 326.859L416.667 331.125L406.135 319.321Z" fill="white"/>
<path opacity="0.5" d="M426.029 328.208C425.706 327.592 426.344 315.445 426.344 315.445L432.357 318.731C432.083 318.675 431.902 328.973 431.736 328.973C431.569 328.973 428.316 325.456 428.316 325.456L426.029 328.208Z" fill="white"/>
<path opacity="0.3" d="M434.291 348.115L436.736 360.125L443.856 362.705L448.673 358.505L447.792 347.163L434.291 348.115Z" fill="white"/>
<path d="M426.894 327.166L424.64 327.716C424.633 327.713 424.554 327.858 424.609 327.768C424.64 327.716 423.376 332.038 423.376 332.038C423.74 332.36 424.952 334.454 425.092 334.42C425.232 334.386 428.225 334.108 428.225 334.108L429.311 330.939C429.311 330.939 426.876 327.139 426.894 327.166Z" fill="#407BFF"/>
<path opacity="0.2" d="M426.894 327.166L424.64 327.716C424.633 327.713 424.554 327.858 424.609 327.768C424.64 327.716 423.376 332.038 423.376 332.038C423.74 332.36 424.952 334.454 425.092 334.42C425.232 334.386 428.225 334.108 428.225 334.108L429.311 330.939C429.311 330.939 426.876 327.139 426.894 327.166Z" fill="black"/>
<path d="M402.02 344.361C402.02 344.361 407.371 379.964 410.461 383.292C415.683 388.916 441.553 403.839 441.553 403.839L454.465 399.312C455.37 399.015 456.371 399.177 457.11 399.742L465.938 406.48L465.095 407.191C464.731 407.498 464.204 407.56 463.774 407.347L462.402 406.664L463.936 408.168L463.45 408.578C462.967 408.986 462.296 409.132 461.675 408.966L457.727 407.907L461.37 410.332C460.557 411.018 459.425 411.256 458.386 410.959L452.611 409.313C448.673 410.214 444.66 410.789 440.62 411.031C433.82 411.45 401.707 400.229 395.722 392.014C389.737 383.799 383.565 349.688 383.565 349.688L402.02 344.361Z" fill="#B97964"/>
<path d="M384.933 368.046C384.933 368.046 376.931 335.779 387.459 327.96C397.987 320.141 408.415 360.962 408.415 360.962L384.933 368.046Z" fill="#407BFF"/>
<path opacity="0.5" d="M384.933 368.046C384.933 368.046 376.931 335.779 387.459 327.96C397.987 320.141 408.415 360.962 408.415 360.962L384.933 368.046Z" fill="white"/>
<path d="M471.109 409.06H451.249H430.176C430.176 409.065 430.176 409.069 430.176 409.073C430.186 410.636 431.932 411.897 434.074 411.889H455.129H467.173C467.191 411.889 467.21 411.889 467.229 411.889H467.232H500.751C502.876 411.874 504.586 410.609 504.576 409.059H471.109V409.06Z" fill="#263238"/>
<path d="M501.365 411.73H463.97C463.325 411.726 462.806 411.302 462.811 410.784C462.812 410.687 462.832 410.59 462.87 410.498L479.505 372.36C479.925 371.271 481.178 370.526 482.598 370.521H520.016C520.649 370.521 521.162 370.933 521.161 371.441C521.161 371.547 521.138 371.653 521.093 371.753L504.458 409.891C504.031 410.977 502.783 411.719 501.365 411.73Z" fill="#263238"/>
<path opacity="0.7" d="M520.016 370.521H482.599C481.178 370.526 479.926 371.271 479.506 372.36L463.498 409.06H451.25H430.177C430.177 409.064 430.177 409.069 430.177 409.073C430.187 410.636 431.933 411.897 434.075 411.889H455.13H467.174C467.192 411.889 467.211 411.889 467.23 411.889H467.233H500.752C501.426 411.884 502.049 411.743 502.597 411.518C503.467 411.225 504.163 410.644 504.458 409.891L521.093 371.753C521.138 371.653 521.161 371.547 521.161 371.441C521.162 370.933 520.649 370.521 520.016 370.521Z" fill="white"/>
<path d="M497.544 390.825C496.736 392.655 495.098 393.912 493.877 393.656C492.656 393.4 492.33 391.732 493.114 389.897C493.898 388.062 495.555 386.834 496.776 387.09C497.998 387.346 498.362 388.947 497.544 390.825Z" fill="white"/>
<g opacity="0.3">
<path d="M479.505 372.36L463.497 409.06H465.23L482.598 370.521C481.178 370.526 479.925 371.271 479.505 372.36Z" fill="black"/>
</g>
<path d="M481.437 451.36L505.523 455.237L509.388 445.303L484.072 437.405L481.437 451.36Z" fill="#B97964"/>
<path d="M516.234 460.248L519.487 453.523C519.487 453.523 518.562 452.277 519.211 450.83C519.576 450.017 521.598 448.677 521.598 448.677L530.683 430.25C530.656 430.237 529.422 429.624 528.775 429.559C527.986 429.48 527.28 429.49 526.647 429.574C524.431 429.87 522.686 431.597 521.443 432.919C519.358 435.135 512.161 440.627 512.161 440.627C512.161 440.627 510.128 441.918 506.947 441.824C505.173 441.772 503.75 442.429 503.256 443.178C502.246 444.705 502.77 446.078 504.175 447.049L505.808 448.174C506.166 449.892 505.315 451.504 503.516 452.192C503.516 452.192 499.782 454.652 501.619 455.308C502.667 455.682 507.418 457.178 511.135 458.473C512.002 458.774 512.821 459.06 513.54 459.311L513.541 459.309C515.136 459.868 516.234 460.248 516.234 460.248Z" fill="#263238"/>
<path d="M515.87 437.586C515.755 437.633 515.685 437.756 515.698 437.882C515.758 438.457 515.964 439.015 516.326 439.501C516.517 439.758 516.957 439.476 516.764 439.217C516.442 438.785 516.258 438.295 516.205 437.792C516.187 437.624 516.03 437.522 515.875 437.584C515.875 437.584 515.872 437.585 515.87 437.586Z" fill="#407BFF"/>
<path d="M514.404 438.631C514.289 438.677 514.219 438.801 514.232 438.927C514.292 439.502 514.498 440.06 514.86 440.546C515.051 440.802 515.491 440.521 515.298 440.262C514.976 439.83 514.792 439.34 514.739 438.837C514.721 438.669 514.564 438.567 514.409 438.629C514.409 438.629 514.406 438.63 514.404 438.631Z" fill="#407BFF"/>
<path d="M512.968 439.745C512.853 439.791 512.782 439.915 512.796 440.041C512.855 440.616 513.062 441.174 513.424 441.66C513.615 441.916 514.055 441.635 513.862 441.376C513.54 440.944 513.356 440.454 513.303 439.951C513.285 439.783 513.128 439.681 512.973 439.743C512.973 439.743 512.97 439.744 512.968 439.745Z" fill="#407BFF"/>
<path opacity="0.2" d="M519.212 450.831C519.577 450.018 521.599 448.679 521.599 448.679L530.684 430.252C530.657 430.239 529.423 429.626 528.776 429.561C528.413 429.525 528.073 429.512 527.745 429.512L513.139 459.173C513.271 459.219 513.414 459.269 513.54 459.313L513.541 459.312C515.137 459.869 516.235 460.249 516.235 460.249L519.488 453.524C519.488 453.524 518.563 452.277 519.212 450.831Z" fill="white"/>
<path d="M513.098 440.021C512.431 439.762 511.761 439.501 511.149 439.129C510.538 438.757 509.984 438.265 509.643 437.636C509.484 437.343 509.377 436.976 509.543 436.687C509.717 436.384 510.121 436.297 510.468 436.333C511.137 436.403 511.74 436.81 512.151 437.342C512.562 437.874 512.948 439.366 513.098 440.021Z" stroke="#407BFF" stroke-width="0.25" stroke-miterlimit="10"/>
<path d="M513.059 440.099C512.345 440.06 511.626 440.021 510.916 440.108C510.206 440.195 509.498 440.414 508.928 440.846C508.663 441.047 508.413 441.338 508.445 441.669C508.478 442.017 508.81 442.262 509.142 442.373C509.78 442.585 510.497 442.464 511.091 442.149C511.686 441.834 512.652 440.634 513.059 440.099Z" stroke="#407BFF" stroke-width="0.25" stroke-miterlimit="10"/>
<path d="M390.925 440.377C385.73 432.105 373.989 409.684 397.816 405.316C421.643 400.948 501.251 438.78 501.251 438.78L496.207 453.973L422.111 442.293C422.111 442.293 432.25 455.828 419.953 455.211C402.065 453.441 397.771 449.162 390.925 440.377Z" fill="#263238"/>
<path opacity="0.7" d="M423.869 442.7L403.541 436.304C403.541 436.304 420.594 446.737 426.85 447.978L423.869 442.7Z" fill="black"/>
</svg>
